/* XPM */
static char *_2113_7e755d23c50874310962d44f2d3ca930960319d75ed4fac9695d9f28b15d76e6[] = {
/* columns rows colors chars-per-pixel */
"30 30 95 2 ",
"   c #415E64",
".  c #46666D",
"X  c #48686F",
"o  c #4A6B74",
"O  c #4D6F78",
"+  c #4E717A",
"@  c #51747E",
"#  c #527780",
"$  c #557A85",
"%  c #577E88",
"&  c #587F8A",
"*  c #5B828D",
"=  c #5E8692",
"-  c #5F8894",
";  c #628793",
":  c #618A96",
">  c #638D9A",
",  c #6A8F9C",
"<  c #65909E",
"1  c #6C919E",
"2  c #6793A1",
"3  c #6A96A4",
"4  c #6B98A7",
"5  c #6D9BAA",
"6  c #7296A4",
"7  c #7498A6",
"8  c #729DAD",
"9  c #799FAE",
"0  c #70A0AF",
"q  c #78A1AF",
"w  c #72A2B2",
"e  c #7BA4B4",
"r  c #7FA8B6",
"t  c #76A7B8",
"y  c #7CA7B8",
"u  c #77A9BA",
"i  c #7AACBD",
"p  c #7BAFC1",
"a  c #7DB2C4",
"s  c #81ABBC",
"d  c #89ADB9",
"f  c #86AEC0",
"g  c #8AAFC2",
"h  c #83B2C5",
"j  c #84B6C9",
"k  c #8BB6C8",
"l  c #87BACD",
"z  c #8AB9CC",
"x  c #92B5C2",
"c  c #9CBAC4",
"v  c #94BBCD",
"b  c #9DBFCC",
"n  c #8DBDD1",
"m  c #94BED2",
"M  c #A1BFCC",
"N  c #95C2D7",
"B  c #9BC2D5",
"V  c #96C4DA",
"C  c #9BC6DA",
"Z  c #9EC8DC",
"A  c #A1C3CE",
"S  c #A3C8D4",
"D  c #A3C9DD",
"F  c #B2C9D1",
"G  c #ADD0DE",
"H  c #B4D2DD",
"J  c #9FCAE0",
"K  c #A2CCE2",
"L  c #ACD3EB",
"P  c #B1D2E3",
"I  c #BCD7E4",
"U  c #B2D6ED",
"Y  c #B7D8EA",
"T  c #B3D9F1",
"R  c #C1DBE5",
"E  c #CBDCE2",
"W  c #C0DBEC",
"Q  c #C3DFF1",
"!  c #CEE0E6",
"~  c #C7E0ED",
"^  c #C9E2EF",
"/  c #C1E0F5",
"(  c #CAE3F3",
")  c #CFE7F8",
"_  c #D1E6F2",
"`  c #D7E9F2",
"'  c #D0E7F9",
"]  c #DCEEF9",
"[  c #E6F1F5",
"{  c #EDF4F7",
"}  c #ECF5F8",
"|  c #F2F7F9",
" . c #F5F9FA",
".. c #FEFEFE",
"X. c None",
/* pixels */
"X.X.X.X.X.X.X.X.X.h j z z h w 5 3 2 4 3 2 X.X.X.X.X.X.X.X.X.",
"X.X.X.X.X.X.X.h z D P K K Z n j a u w p p u w X.X.X.X.X.X.X.",
"X.X.X.X.X.X.z D ^ ` I C N m m n l a u w a j j a X.X.X.X.X.X.",
"X.X.X.X.X.z K W H d 7 7 1 6 < = w a p w y P T ( W X.X.X.X.X.",
"X.X.X.X.h K Z s 6 e M D 9 m m 3 $ = w w w x ( ) ' ( X.X.X.X.",
"X.X.X.e V V w 7 b _ ] P w s m h p > # - 5 0 h J J K V X.X.X.",
"X.X.> s C e 9 P ] ( Y M p 4 h a a a 4 O - 5 4 w a a a w X.X.",
"X.X.4 h s 7 D Q T V G I h 4 t a a a p - O > 3 < 0 0 0 5 X.X.",
"X.2 4 w ; v U L N n R ` a 5 5 a a a p 0 # $ > > 2 4 4 4 < X.",
"X.> 7 = > L L N n C [ | S e 4 a a a u w > o = > > 4 4 4 3 X.",
"X.- , @ s K k v R { .... .E b e 0 0 4 4 2 O $ = = 4 4 4 4 X.",
"= = & @ s v m m Z P { ..H r e w 5 3 2 - & $ o * * < 4 4 5 > ",
"= & + 1 K h z i a a R [ h 5 4 4 4 4 > & 4 > . $ * > 4 4 4 2 ",
"= $ o 4 Z i s s 5 w A ! w 4 4 4 2 = $ 4 w 4 . # * = > > > = ",
"; $ o , h t u y y 4 d F 4 4 4 < $ $ 3 w 0 < . O = $ % $ $ $ ",
"= # X ; y 0 t w q w q c 4 4 4 # # 4 w 0 4 > . O & $ $ $ $ $ ",
"= $ X % 8 w 0 w 7 i e d 4 5 4 # = 0 0 5 2 = . O & $ $ $ $ $ ",
"& # o @ 2 0 w 5 w k y q 2 < 4 * # 5 4 2 2 % . O & $ $ $ $ $ ",
"& $ o O > 5 w 5 h j w 2 % * = * @ > 2 2 > @ . @ & $ $ $ $ # ",
"X.% o . * > 5 8 v i 4 * @ + $ & # & 2 > = o X # % $ $ $ $ X.",
"X.& + . + = - 9 V 5 - - 2 - @ + # $ > - $ . o % $ # + # @ X.",
"X.& # o . $ * g s - : 2 2 2 < * + @ % * o X + % o o o o o X.",
"X.X.% O . o & 6 * * - : > > > - % @ @ @ . o $ # o o o o X.X.",
"X.X.% # o . o % * * * * * * * * * * + . o + % o o o o o X.X.",
"X.X.X.% + o . o % * * * * * * * * + . X o $ # o o o o X.X.X.",
"X.X.X.X.% O o . . O # * * & % + X . o o # # o o o o X.X.X.X.",
"X.X.X.X.X.% + o o . . . . . . . o o o # # o o o o X.X.X.X.X.",
"X.X.X.X.X.X.% # O o o o o o o O o + $ + o X X o X.X.X.X.X.X.",
"X.X.X.X.X.X.X.% $ # @ + O O + @ $ @ .         X.X.X.X.X.X.X.",
"X.X.X.X.X.X.X.X.X.& % % % % $ + . .       X.X.X.X.X.X.X.X.X."
};
