/* XPM */
static char *_5930_63369769118d20c15f6f29f671490ce60d6762b2776097d4bbe2099cccde692b[] = {
/* columns rows colors chars-per-pixel */
"30 38 146 2 ",
"   c #1B150E",
".  c #001014",
"X  c #161617",
"o  c #171718",
"O  c #1C1C1D",
"+  c #111A1D",
"@  c #23201E",
"#  c #2C241B",
"$  c #3D2815",
"%  c #322519",
"&  c #001F27",
"*  c #171F22",
"=  c #1F1F20",
"-  c #1B2629",
";  c #03313C",
":  c #222122",
">  c #43270D",
",  c #4C2C0D",
"<  c #4D2E12",
"1  c #4F3312",
"2  c #543111",
"3  c #5B3511",
"4  c #5C3C15",
"5  c #69400D",
"6  c #72440D",
"7  c #77490F",
"8  c #6F4611",
"9  c #7C4C13",
"0  c #5D542F",
"q  c #7C5E28",
"w  c #013542",
"e  c #013947",
"r  c #013E4D",
"t  c #113C48",
"y  c #014353",
"u  c #014A5C",
"i  c #17555D",
"p  c #2F5750",
"a  c #014E62",
"s  c #015165",
"d  c #01566B",
"f  c #01596F",
"g  c #015C73",
"h  c #01627A",
"j  c #0C6172",
"k  c #1A6578",
"l  c #156A7F",
"z  c #15667B",
"x  c #824E0F",
"c  c #8C520E",
"v  c #965A11",
"b  c #9D5E12",
"n  c #A05F13",
"m  c #9D6016",
"M  c #A36212",
"N  c #AB6714",
"B  c #AE6813",
"V  c #A26318",
"C  c #A5691C",
"Z  c #B36B14",
"A  c #BE7316",
"S  c #885E20",
"D  c #AD7223",
"F  c #C37516",
"G  c #CD7B17",
"H  c #CC7B18",
"J  c #D17E17",
"K  c #D27E19",
"L  c #D68119",
"P  c #DD851A",
"I  c #E1871B",
"U  c #EC8D1C",
"Y  c #E5891B",
"T  c #F3921D",
"R  c #F9951E",
"E  c #036780",
"W  c #026B85",
"Q  c #026E89",
"!  c #03718D",
"~  c #037692",
"^  c #037996",
"/  c #047C9B",
"(  c #307485",
")  c #377E90",
"_  c #04809F",
"`  c #2F859B",
"'  c #368599",
"]  c #0384A5",
"[  c #0487A9",
"{  c #048AAC",
"}  c #1286A3",
"|  c #038EB1",
" . c #0392B6",
".. c #0395B9",
"X. c #0498BE",
"o. c #0A9ABE",
"O. c #1494B5",
"+. c #2190AD",
"@. c #209FBF",
"#. c #2BA1BE",
"$. c #3CA4BE",
"%. c #4D818E",
"&. c #519AAC",
"*. c #6D9DAA",
"=. c #49A4BA",
"-. c #71A2AF",
";. c #69A7B6",
":. c #61A1B2",
">. c #75A4B1",
",. c #059DC4",
"<. c #0A9DC2",
"1. c #05A0C7",
"2. c #05A2CA",
"3. c #03A7D0",
"4. c #05A8D2",
"5. c #68AFC1",
"6. c #7EB6C3",
"7. c #8E8E8E",
"8. c #979797",
"9. c #86AEB8",
"0. c #9CB0B6",
"q. c #B9B9B9",
"w. c gray71",
"e. c #83B5C2",
"r. c #97BEC8",
"t. c #A1BDC4",
"y. c #96C1CB",
"u. c #AAC1C7",
"i. c #A1C2CA",
"p. c #BBC8CC",
"a. c #B9CDD2",
"s. c #C7CBCC",
"d. c #CECECE",
"f. c #C5C4C4",
"g. c #C7CED0",
"h. c #C8D0D2",
"j. c #DBE5E8",
"k. c #E6E6E6",
"l. c #E9E6E6",
"z. c #ECEBEA",
"x. c #E6EAEC",
"c. c #F0EDED",
"v. c #F5F4F4",
"b. c #F8F6F5",
"n. c #FEFDFD",
"m. c None",
/* pixels */
"m.m.m.m.m.m.m.m.m.m.m.m.m.m.m.[ Q u y m.m.m.m.m.m.m.m.m.m.m.",
"m.m.m.m.m.m.m.m.m.m.m.m.m.m./ 4.] g g [ ..[ ~ m.m.m.m.m.m.m.",
"m.m.m.m.m.m.m.m.m.m.m.m.m.m...4.2.[ [ 2.4.4.{ h d a m.m.m.m.",
"m.m.m.m.m.m.m.m.m.m.m.m.m.~ 2.4.4.4.4.4.4.4.| h g f f u m.m.",
"m.m.m.m.m.m.m.m.m.m.m.m.m.2.4.4.4.4.4.4.4.4.1.Q d r g g u m.",
"m.m.m.m.m.m.m.m.m.m.m.m.l | ,.4.4.2.<.$.#.o.] W g d d g g m.",
"m.m.m.m.m.m.m.m.m.m.w.z.a.` { 4.2.;.j.v.z.y.O.W g a u g g r ",
"m.m.m.m.m.m.m.m.m.q.7.b.n.y.2.2.=.l.f.n.n.n.e./ g f f g f m.",
"m.m.m.m.m.m.m.m.m.l.n.n.b.u.<.1.y.z.8.b.n.n.h.z g g g g d m.",
"m.m.m.m.m.m.m.m.m.s.n.n.l.-.1.,.i.n.n.n.n.b.g.k g g g g u m.",
"m.m.m.m.m.m.m.m.m.m.9.u.*.}  .2.;.n.n.n.n.v.0.g g g d a w m.",
"m.m.m.m.m.m.m.m.m.m.X.<.! ^ Q [ O.t.b.b.z.p.( g g g y y a y ",
"m.m.m.m.m.m.m.m.m.{ <.,...,.^ ~ ,.O.&.>.:.+.h g g s u u d u ",
"m.m.m.m.m.m.m.m.m.) a.6.<.| { 1.,.,...X. . .h g g f g d s e ",
"m.m.m.m.m.m.m.m.m.m.b.z.%.m.m./  . .| / ..[ f s u m.y y m.m.",
"m.m.m.m.m.m.m.m.m.m.d.d.m.m.m.m.^ ,.2.X.! u m.m.m.m.m.m.m.m.",
"m.m.m.m.m.m.m.m.m.m.m.m.m.m.m.m.m.[ 2.] y m.m.m.m.m.m.m.m.m.",
"m.m.m.m.m.m.m.m.m.m.m.m.m.m.m.m.m.m.Q j 0 5 m.m.m.m.m.m.m.m.",
"m.m.m.g W m.g i C K K L L L L J J H D S G v m.m.m.m.m.m.m.m.",
"m.h g s ! { 2.[ q R R R R R T T U I G M G b m.m.m.m.m.m.m.m.",
"u _ a ^ ..2.<.s m.n F K P L L J F Z M N K M m.m.m.m.m.m.m.m.",
"m.e w E r { W m.m.8 F H G F B v N H Y Y J B m.m.m.m.m.m.m.m.",
"m.m.m.E & ~ u m.] p c B b m B m U R U I J Z m.m.m.m.m.m.m.m.",
"m.m.m.y . y s / ,.a m.6 A H Z b T R I L G A m.m.m.m.m.m.m.m.",
"m.m.m.m.f g E ] { m.m.m.M M m.Z R T G L H F 6 m.m.m.m.m.m.m.",
"m.m.m.~ h h h Q ^ m.m.m.m.m.m.A U T A H K H x m.m.m.m.m.m.m.",
"m.m.m.u ; d d w ! y m.m.m.m.m.2 m m 9 H Z G v m.m.m.m.m.m.m.",
"m.m.m.m.m.m.d m.m.r m.m.m.m.m.o # @ # 4 % 4 7 m.m.m.m.m.m.m.",
"m.m.m.m.m.m.m.m.m.m.m.m.m.m.m.o : : : O : :   m.m.m.m.m.m.m.",
"m.m.m.m.m.m.m.m.m.m.m.m.m.m.m.m.o = - : : m.m.m.m.m.m.m.m.m.",
"m.m.m.m.m.m.m.m.m.m.m.m.m.m.m.m.O = O @ = m.m.m.m.m.m.m.m.m.",
"m.m.m.m.m.m.m.m.m.m.m.m.m.m.m.m.O : m.- - m.m.m.m.m.m.m.m.m.",
"m.m.m.m.m.m.m.m.m.m.m.m.m.m.m.O : : m.m.t : m.m.m.m.m.m.m.m.",
"m.m.m.m.m.m.m.m.m.m.m.m.m.m.m.+ * m.m.m.m.: : % m.m.m.m.m.m.",
"m.m.m.m.m.m.m.m.m.m.m.' { m.m.g ; m.m.m.m.> < < m.m.m.m.m.m.",
"m.m.m.m.m.m.m.m.m.m.m.m.Q ^ / / m.m.m., 3 3 < m.m.m.m.m.m.m.",
"m.m.m.m.m.m.m.m.m.m.m.m.m.m.g j m.m.m.3 2 > m.m.m.m.m.m.m.m.",
"m.m.m.m.m.m.m.m.m.m.m.m.m.m.m.m.m.m.m.> m.m.m.m.m.m.m.m.m.m."
};
