/* XPM */
static char *_1d55e1128244ec093036f7e1bacad5fcBPwDXUIODAdwSkZ[] = {
/* columns rows colors chars-per-pixel */
"60 60 206 2 ",
"   c None",
".  c black",
"X  c #010000",
"o  c #010100",
"O  c #010101",
"+  c #020101",
"@  c #030201",
"#  c #020202",
"$  c #040302",
"%  c #040506",
"&  c #050607",
"*  c #060606",
"=  c #060708",
"-  c #070809",
";  c #06080A",
":  c #07090B",
">  c #08090A",
",  c #090B0C",
"<  c #0A0B0C",
"1  c #0A0B0D",
"2  c #0A0C0D",
"3  c #0A0C0E",
"4  c #0B0E11",
"5  c #0C0E10",
"6  c #0C0F11",
"7  c #0C0F12",
"8  c #0D1114",
"9  c #0E1114",
"0  c #0E1215",
"q  c #0E1216",
"w  c #0F1316",
"e  c #0F1317",
"r  c #0F1417",
"t  c #0F1418",
"y  c #101417",
"u  c #121416",
"i  c #101418",
"p  c #101519",
"a  c #111519",
"s  c #121519",
"d  c #12161A",
"f  c #13171C",
"g  c #14181A",
"h  c #16191B",
"j  c #13181C",
"k  c #14181D",
"l  c #171A1C",
"z  c #181B1E",
"x  c #181C1F",
"c  c #151B21",
"v  c #161B20",
"b  c #161B21",
"n  c #171E24",
"m  c #191D20",
"M  c #1B1E20",
"N  c #1A1E21",
"B  c #1B1E21",
"V  c #1A1F23",
"C  c #1C1F21",
"Z  c #181E24",
"A  c #181F25",
"S  c #191F26",
"D  c #1A2026",
"F  c #1C242B",
"G  c #1D242C",
"H  c #1D252C",
"J  c #1F272F",
"K  c #202529",
"L  c #20282F",
"P  c #202830",
"I  c #202931",
"U  c #212B33",
"Y  c #222B33",
"T  c #232B33",
"R  c #232D36",
"E  c #242E36",
"W  c #26313B",
"Q  c #28333D",
"!  c #293540",
"~  c #2A3640",
"^  c #2B3640",
"/  c #2A3641",
"(  c #2B3742",
")  c #2C3741",
"_  c #2C3743",
"`  c #2C3843",
"'  c #2C3944",
"]  c #2D3A45",
"[  c #2D3A46",
"{  c #2E3A46",
"}  c #2E3B46",
"|  c #2E3B47",
" . c #2F3B47",
".. c #2F3C48",
"X. c #2F3C49",
"o. c #2F3D49",
"O. c #303B44",
"+. c #313C45",
"@. c #313D47",
"#. c #303C49",
"$. c #303D49",
"%. c #303E4A",
"&. c #313E4A",
"*. c #313F4A",
"=. c #303E4B",
"-. c #313F4C",
";. c #323F4C",
":. c #34404A",
">. c #33404C",
",. c #33404D",
"<. c #33414E",
"1. c #33414F",
"2. c #33424F",
"3. c #34424F",
"4. c #344250",
"5. c #344350",
"6. c #354351",
"7. c #354451",
"8. c #374451",
"9. c #354452",
"0. c #354553",
"q. c #364552",
"w. c #364554",
"e. c #364654",
"r. c #374755",
"t. c #384654",
"y. c #384756",
"u. c #394855",
"i. c #384856",
"p. c #394856",
"a. c #384957",
"s. c #394958",
"d. c #394A59",
"f. c #3A4A58",
"g. c #3A4A59",
"h. c #3B4B59",
"j. c #3A4B5A",
"k. c #3B4B5A",
"l. c #3B4B5B",
"z. c #3B4C5B",
"x. c #3C4C5B",
"c. c #3C4D5B",
"v. c #3B4C5C",
"b. c #3C4D5C",
"n. c #3D4D5C",
"m. c #3C4D5D",
"M. c #3F4F5D",
"N. c #3D4E5E",
"B. c #3D4E5F",
"V. c #3D4F5F",
"C. c #3E4F5F",
"Z. c #3E5060",
"A. c #3F5060",
"S. c #3F5061",
"D. c #3F5262",
"F. c #405262",
"G. c #415262",
"H. c #405263",
"J. c #415364",
"K. c #425364",
"L. c #415465",
"P. c #425465",
"I. c #425466",
"U. c #425566",
"Y. c #435566",
"T. c #435667",
"R. c #455565",
"E. c #435668",
"W. c #445768",
"Q. c #445769",
"!. c #45576A",
"~. c #44586A",
"^. c #45586A",
"/. c #45586B",
"(. c #45596C",
"). c #465A6C",
"_. c #475A6D",
"`. c #475C6F",
"'. c #485B6E",
"]. c #4A5E71",
"[. c #4A5F72",
"{. c #4B5F73",
"}. c #4B6075",
"|. c #4C6175",
" X c #4D6277",
".X c #4D6378",
"XX c #4E6478",
"oX c #4F6579",
"OX c #50667A",
"+X c #50667C",
"@X c #50677C",
"#X c #51677C",
"$X c #51677D",
"%X c #52697F",
"&X c #536A80",
"*X c #536B81",
"=X c #546A80",
"-X c #556C83",
";X c #566D84",
":X c #566E86",
">X c #576F86",
",X c #587188",
"<X c #587189",
"1X c #597189",
"2X c #5B748C",
"3X c #5C758D",
/* pixels */
"                                                                                                                        ",
"                                                                                                                        ",
"                                                                                                                        ",
"                                                                                                                        ",
"                                                                                                                        ",
"                                                                                                                        ",
"                                                                                                                        ",
"                                                                                                                        ",
"                                                                                                                        ",
"                                                                                                                        ",
"                                                                                                                        ",
"                                                                                                                        ",
"                                                                                                                        ",
"                                                                                                                        ",
"                                                                                                                        ",
"                                                                                                                        ",
"                                                                                                                        ",
"                                                                                                                        ",
"                                                                                                                        ",
"                                                                                                                        ",
"                                                                                                                        ",
"                                                                                                                        ",
"                                              ( &.} J.Q.w...} -.(                                                       ",
"                                          J -.;XG.g.g.~.T.g.-.{.A.-.L                                                   ",
"                                        &.T.x.%X{.XX} ( 3.7.~.;X+X.X7.`                                                 ",
"                                      W ~.{.b.( 6.A.p.} 6.<.E.7.G...A.b.Y                                               ",
"                                    b ..(.A.n * < 2 > * ; = ; * ; 6 } `.x.D                                             ",
"                                    <.T.-.Z . . . . . . . . . . . . r w._ y.                                            ",
"                                    +X&X7.. . . . . . . . . . . . . . Y XX-X<.                                          ",
"                                  &. Xb.Z . . . . . . . . . . . $ . . a 7.T.<.                                          ",
"                                  Z b Z < . . . . . . . . . . . . . . ; J Y R                                           ",
"                                  E Q.'.y . . . . . . . . . . . . . . a b.J._                                           ",
"                                  J.,X&Xl . . . . . . . . . . . . . . a +X,XQ.                                          ",
"                                  F Y J < . . . . . . . . . . . . . . ; Y Y Y                                           ",
"                                  &.&.<.0 . . . . . . . . . . . . . . 6 } Q 7.                                          ",
"                                  <.w.~.a . . . . . . . . . . . . . . 0 T.b.w.                                          ",
"                                  } g.w.0 . . . . . . . . . . . . . . 4 7.g.<.                                          ",
"                                  <.(.XXj . . . . . . . . . . . . . . a  XQ.x.                                          ",
"                                  T.3X2Xb . $ . . . . . . . . . . . . f ,X;XT.                                          ",
"                                  g.{.(.a . $ . . . . . . . . . . . . 0 ~.}.J.                                          ",
"                                  } b.g.0 . . . . . . . . . . . . . . 6 p.b.7.                                          ",
"                                  ( g.z.t . . . . . . . . . . . . . . 0 ~.T.7.                                          ",
"                                  p.b.b.0 . . . . . . . . . . . . . . 0 J.b.p.                                          ",
"                                  &.b.y.0 . . . . . . . . . . . . . . 2 6.v.<.                                          ",
"                                  b.+X;Xb . . . . . . . . . . . . . . 6  X%X{.                                          ",
"                                  R.=X,Xb . . . . . . . . . . . . . . 6 OX XA.                                          ",
"                                  7.b.g.0 . . . . . . . . . . . . . . 4 y.b.7.                                          ",
"                                  g.g.b.a . . . . . . . . . . . . . . 0 A.z.g.                                          ",
"                                    b.G.a . . . . . . . . . . . . . . 6 g.g.g.                                          ",
"                                      @.V y h h h l h V C z x V V V V K @.:.O.                                          ",
"                                                                                                                        ",
"                                                                                                                        ",
"                                                                                                                        ",
"                                                                                                                        ",
"                                                                                                                        ",
"                                                                                                                        ",
"                                                                                                                        ",
"                                                                                                                        ",
"                                                                                                                        ",
"                                                                                                                        "
};
