/* XPM */
static char *_467b306d21f4eb0d721b0c4de650aa6keEwuPIQlSu4JcjS[] = {
/* columns rows colors chars-per-pixel */
"60 60 152 2 ",
"   c None",
".  c #161B21",
"X  c #181F25",
"o  c #1A2026",
"O  c #1D252D",
"+  c #1F2830",
"@  c #20282F",
"#  c #222B33",
"$  c #26313B",
"%  c #28333D",
"&  c #3C3838",
"*  c #50311E",
"=  c #433022",
"-  c #4D3423",
";  c #45352A",
":  c #49372A",
">  c #4F3B2D",
",  c #503624",
"<  c #5C3B25",
"1  c #503C2E",
"2  c #583F2D",
"3  c #433B35",
"4  c #483F38",
"5  c #523E31",
"6  c #633C23",
"7  c #755A18",
"8  c #5D402B",
"9  c #5D502F",
"0  c #554235",
"q  c #5C4735",
"w  c #5F4937",
"e  c #52443A",
"r  c #5F4A3B",
"t  c #6D4427",
"y  c #6C4B20",
"u  c #63452E",
"i  c #6B462C",
"p  c #6D492E",
"a  c #744C2E",
"s  c #7B4F2F",
"d  c #7D5C27",
"f  c #7E512F",
"g  c #634731",
"h  c #614B36",
"j  c #6C4D33",
"k  c #654D38",
"l  c #744F32",
"z  c #6E543D",
"x  c #7D5332",
"c  c #2B3641",
"v  c #2D3A45",
"b  c #2F3C48",
"n  c #313C45",
"m  c #313E4B",
"M  c #33414E",
"N  c #364552",
"B  c #384754",
"V  c #394856",
"C  c #3B4C5B",
"Z  c #3F5161",
"A  c gray25",
"S  c #4B4B4C",
"D  c #5B5148",
"F  c #46515C",
"G  c #535354",
"H  c #515459",
"J  c #585758",
"K  c #565A5E",
"L  c #645140",
"P  c #6A5545",
"I  c #6D5949",
"U  c #715741",
"Y  c #725943",
"T  c #745F4D",
"R  c #655F5D",
"E  c #706340",
"W  c #7A634F",
"Q  c #67625E",
"!  c #7B6653",
"~  c #425465",
"^  c #445769",
"/  c #45596B",
"(  c #565C62",
")  c #4A5F72",
"_  c #5F6265",
"`  c #4D6276",
"'  c #4E6479",
"]  c #50667C",
"[  c #52697E",
"{  c #6B6562",
"}  c #6E6965",
"|  c #6F6C6B",
" . c #716D6B",
".. c #706F70",
"X. c #727273",
"o. c #787779",
"O. c #79787A",
"+. c #825533",
"@. c #845835",
"#. c #835B3A",
"$. c #895D39",
"%. c #88652C",
"&. c #846131",
"*. c #8E613C",
"=. c #92643E",
"-. c #8E6541",
";. c #926743",
":. c #976740",
">. c #916643",
",. c #996841",
"<. c #996A43",
"1. c #9A6A42",
"2. c #9B6A42",
"3. c #9B6B42",
"4. c #9B6B43",
"5. c #9C6B43",
"6. c #996B44",
"7. c #9D6D45",
"8. c #9E6E45",
"9. c #9F6E45",
"0. c #9C6B43",
"q. c #846C56",
"w. c #846D58",
"e. c #A06F45",
"r. c #A06F45",
"t. c #A37047",
"y. c #A17144",
"u. c #A97747",
"i. c #A47148",
"p. c #A57348",
"a. c #A67449",
"s. c #A7764B",
"d. c #A8764B",
"f. c #A9774B",
"g. c #A9764B",
"h. c #AA774B",
"j. c #A9774C",
"k. c #AB774C",
"l. c #A9764B",
"z. c #AB784C",
"x. c #AE794D",
"c. c #AF794D",
"v. c #AD784D",
"b. c #B07A4D",
"n. c #CDA532",
"m. c #536A81",
"M. c #556C83",
"N. c #566D84",
"B. c #566E86",
"V. c #566D84",
"C. c #597189",
"Z. c #5A738B",
/* pixels */
"                                                                                                                        ",
"                                                                                                                        ",
"                                                                                                                        ",
"                                                                                                                        ",
"                                                                                                                        ",
"                                                                                                                        ",
"                                                                                                                        ",
"                                                                                                                        ",
"                                                                                                                        ",
"                                                                                                                        ",
"                                                                                                                        ",
"                                                                                                                        ",
"                                                                                                                        ",
"                                                                                                                        ",
"                                                                                                                        ",
"                                                                                                                        ",
"                                                                                                                        ",
"                                                                                                                        ",
"                                                                                                                        ",
"                                                                                                                        ",
"                                                                                                                        ",
"                                                                                                                        ",
"                                              c m v ~ ^ N b v m c                                                       ",
"                                          O m N.~ C C ^ ^ C m ) Z m @                                                   ",
"                                        m ^ C [ ) ' v % M N ^ N.] ` N c                                                 ",
"                                      $ ^ ) Z n N ~ C m B N ^ N ~ N Z C #                                               ",
"                                    . b ^ ^ S , - g , < 8 , u - 2 e B / C o                                             ",
"                                    M ~ M & a f s a.+.:.3.+.p.@.*.p.e V c B                                             ",
"                                    ] [ F * $.3.+.j.+.3.8.@.d.$.=.c.a A ' M.M                                           ",
"                                  m ` C 3 6 t.3.x d.+.3.8.@.d.$.=.c.x L N ^ M                                           ",
"                                  X . X - t d.3.x d.+.3.8.@.d.$.=.c.+.j O # #                                           ",
"                                  # ^ / 1 t d.3.x d.+.3.8.@.d.$.=.c.+.Y C ~ c                                           ",
"                                  ~ C.m.0 t d.5.+.z.+.3.8.@.d.$.=.c.+.Y [ C.^                                           ",
"                                  O # O = 6 3.$.a 4.s $.*.s 4.x @.8.a g # + #                                           ",
"                                  m m M S {  .} } } }  .} } } } } } } G b % N                                           ",
"                                  M N ^ H | X.| X.X...X. .| X.| X...X.K ^ C N                                           ",
"                                  v C N ; < -.#.p -.p #.#.a -.l x ;.i w N C M                                           ",
"                                  M / ' 0 t j.5.+.z.@.3.e.@.j.$.=.u.&.Y ` ^ C                                           ",
"                                  ^ Z.Z.0 t d.3.x d.+.3.8.@.d.$.$.%.n.E C.N.^                                           ",
"                                  C ) / 5 t d.3.x d.+.3.8.@.d.$.*.d 7 9 ^ ` ~                                           ",
"                                  v C C > t d.3.x d.+.3.8.@.a.$.=.t.y h C C N                                           ",
"                                  c C C 5 t d.3.x d.+.3.8.@.a.$.=.c.x U ^ ^ N                                           ",
"                                  V C C 5 t j.5.+.z.@.3.e.@.j.$.=.b.+.U ^ C V                                           ",
"                                  m C N ; < -.#.p -.p #.#.j -.l x ;.p q N C M                                           ",
"                                  C ] N.( o.o.X.O.X.O.o.X.O.X.X.o.X.O._ ' [ )                                           ",
"                                  ~ m.C.H R } { { } { } { { } Q { } { J [ ` Z                                           ",
"                                  N C C : 6 4.*.s 6.s *.=.x 6.x #.8.a k V C N                                           ",
"                                  C C C 5 t d.5.+.z.+.3.8.@.d.$.=.c.+.U Z C C                                           ",
"                                    C Z 5 t d.3.x j.+.3.8.@.a.$.=.c.+.z C C C                                           ",
"                                      n 4 r q.W P q.P ! ! I w.I T w.P D n M n                                           ",
"                                                                                                                        ",
"                                                                                                                        ",
"                                                                                                                        ",
"                                                                                                                        ",
"                                                                                                                        ",
"                                                                                                                        ",
"                                                                                                                        ",
"                                                                                                                        ",
"                                                                                                                        ",
"                                                                                                                        "
};
