/* XPM */
static char *_0557_88a956972df1c51ec9df922b620da1e76534b23d433e50500b74ac8021b2a597[] = {
/* columns rows colors chars-per-pixel */
"50 45 99 2 ",
"   c #090406",
".  c #06070F",
"X  c #0D0609",
"o  c #0D090E",
"O  c #13070C",
"+  c #160C0F",
"@  c #19080E",
"#  c #070911",
"$  c #0A0B14",
"%  c #070C19",
"&  c #0C0E1A",
"*  c #150D13",
"=  c #1C0E13",
"-  c #0B1011",
";  c #0E101E",
":  c #141216",
">  c #1D1216",
",  c #16141C",
"<  c #1D141C",
"1  c #131A1A",
"2  c #200F0F",
"3  c #230C13",
"4  c #2B0B13",
"5  c #330B15",
"6  c #3B0D17",
"7  c #340E1A",
"8  c #390D19",
"9  c #241417",
"0  c #2B1513",
"q  c #241519",
"w  c #29161B",
"e  c #2C191D",
"r  c #321315",
"t  c #351816",
"y  c #34111B",
"u  c #3C111B",
"i  c #361E1D",
"p  c #3A1F1C",
"a  c #0F1222",
"s  c #131424",
"d  c #1B1624",
"f  c #1C1925",
"g  c #131629",
"h  c #15182E",
"j  c #1D1B2B",
"k  c #1D1E31",
"l  c #211621",
"z  c #241B27",
"x  c #2F1B20",
"c  c #221D2E",
"v  c #381320",
"b  c #331D22",
"n  c #381F24",
"m  c #241F31",
"M  c #132321",
"N  c #1B2126",
"B  c #192C2A",
"V  c #1C3331",
"C  c #222028",
"Z  c #29202A",
"A  c #2F2B2D",
"S  c #362122",
"D  c #3C2124",
"F  c #242234",
"G  c #282336",
"H  c #272438",
"J  c #282438",
"K  c #450F1C",
"L  c #46101E",
"P  c #441F19",
"I  c #462116",
"U  c #4C251E",
"Y  c #57291E",
"T  c #441321",
"R  c #491221",
"E  c #452423",
"W  c #4B2625",
"Q  c #4E2728",
"!  c #542322",
"~  c #5A2524",
"^  c #542B23",
"/  c #5C2C24",
"(  c #522929",
")  c #5A2C2B",
"_  c #642E20",
"`  c #622D2A",
"'  c #663127",
"]  c #6B3225",
"[  c #65302D",
"{  c #69312E",
"}  c #73342D",
"|  c #7D392D",
" . c #6E3330",
".. c #733531",
"X. c #793632",
"o. c #7E3833",
"O. c #823B2E",
"+. c #823A33",
"@. c None",
/* pixels */
"@.@.@.@.@.@.@.@.@.@.@.@.@.@.@.@.@.@.@.@.@.@.@.@.@.@.@.@.@.@.@.@.@.@.@.@.@.@.@.@.@.@.@.@.@.@.@.@.@.@.",
"@.@.@.@.@.@.@.@.@.@.@.@.@.@.@.@.@.@.@.@.@.@.@.@.@.@.@.@.@.@.@.@.@.@.@.@.@.@.@.@.@.@.@.@.@.@.@.@.@.@.",
"@.@.@.@.@.@.@.@.@.@.@.@.@.@.@.@.@.@.@.@.@.@.@.@.@.@.@.@.@.@.@.@.@.@.@.@.@.@.@.@.@.@.@.@.@.@.@.@.@.@.",
"@.@.@.@.@.@.@.@.@.@.@.@.@.@.@.@.@.@.@.@.@.@.@.@.@.@.@.@.@.@.@.@.@.@.@.@.@.@.@.@.@.@.@.@.@.@.@.@.@.@.",
"@.@.@.@.@.@.@.@.@.@.@.@.@.@.@.@.@.@.@.@.@.@.@.@.@.@.@.@.@.@.@.@.@.@.@.@.@.@.@.@.@.@.@.@.@.@.@.@.@.@.",
"@.@.@.@.@.@.@.@.@.@.@.@.@.@.@.@.@.@.@.@.@.@.@.@.@.@.@.@.@.@.@.@.@.@.@.@.@.@.@.@.@.@.@.@.@.@.@.@.@.@.",
"@.@.@.@.@.@.@.@.@.@.@.@.@.@.@.@.@.@.@.@.@.@.@.@.@.@.@.@.@.@.@.@.@.@.@.@.@.@.@.@.@.@.@.@.@.@.@.@.@.@.",
"@.@.@.@.@.@.@.@.@.@.@.@.@.@.@.@.@.@.@.@.@.@.@.@.@.@.@.@.@.@.@.@.@.@.@.@.@.@.@.@.@.@.@.@.@.@.@.@.@.@.",
"@.@.@.@.@.@.@.@.@.@.@.@.@.@.@.@.@.@.@.@.@.@.@.@.@.@.@.@.@.@.@.@.@.@.@.@.@.@.@.@.@.@.@.@.@.@.@.@.@.@.",
"@.@.@.@.@.@.@.@.@.@.@.@.@.@.@.@.@.@.@.@.@.@.@.@.@.d c f @.@.@.@.@.@.@.@.@.@.@.@.@.@.@.@.@.@.@.@.@.@.",
"@.@.@.@.@.@.@.@.@.@.@.@.@.@.@.@.@.@.@.f j $ @.@.m F f A f ; @.@.@.@.@.@.@.@.@.@.@.@.@.@.@.@.@.@.@.@.",
"@.@.@.@.@.@.@.@.@.@.@.@.@.@.@.@.@.@.F H s * @.m H k j C 1 N N 1 @.@.@.@.@.@.@.@.@.@.@.@.@.@.@.@.@.@.",
"@.@.@.@.@.@.@.@.@.@.@.@.@.@.@.@.@.m H s $ @.j H F F F g : 1 : - @.@.@.@.@.@.@.@.@.@.@.@.@.@.@.@.@.@.",
"@.@.@.@.@.@.@.@.@.@.@.@.@.@.@.@.F H j & @.@.H H k F k s . @.@.@.@.@.@.@.@.@.@.@.@.@.@.@.@.@.@.@.@.@.",
"@.@.@.@.@.@.@.@.@.@.@.@.@.@.@.F H k & # @., Z C j j h ; @.@.@.@.@.@.@.@.@.@.@.@.@.@.@.@.@.@.@.@.@.@.",
"@.@.@.@.@.@.@.@.@.@.@.@.@.@.c H F g & # @.9 e W E Z j & @.@.@.@.@.@.@.@.@.@.@.@.@.@.@.@.@.@.@.@.@.@.",
"@.@.@.@.@.@.@.@.@.@.@.@.@.f H F k , ; # 2 U U q E / C s @.@.@.@.@.@.@.@.@.@.@.@.@.@.@.@.@.@.@.@.@.@.",
"@.@.@.@.@.@.@.@.@.@.@.@.@.H F F s & f ; 9 } [ i q ^ S j @.@.@.@.@.@.@.@.@.@.@.@.@.@.@.@.@.@.@.@.@.@.",
"@.@.@.@.@.@.@.@.@.@.@.@.c H F k s ; f k S | ..e : i ^ < @.@.@.@.@.@.@.@.@.@.@.@.@.@.@.@.@.@.@.@.@.@.",
"@.@.@.@.@.@.@.@.@.@.@.@.H F F h ; k f g e +. .w : 9 / p @.@.@.@.@.@.@.@.@.@.@.@.@.@.@.@.@.@.@.@.@.@.",
"@.@.@.@.@.@.@.@.@.@.@.c H F k a a k F F S O.) w > > E ] @.@.@.@.@.@.@.@.@.@.@.@.@.@.@.@.@.@.@.@.@.@.",
"@.@.@.@.@.@.@.@.@.@.@.H F F j a h k H k ^ | E > < > e ' @.@.@.@.@.@.@.@.@.@.@.@.@.@.@.@.@.@.@.@.@.@.",
"@.@.@.@.@.@.@.@.@.@.j G F F h a h k F k ^ } D > q > w Q I @.@.@.@.@.@.@.@.@.@.@.@.@.@.@.@.@.@.@.@.@.",
"@.@.@.@.@.@.@.@.@.@.F H H k a a h h k s ] ) D > < > b S 0 @.@.@.@.@.@.@.@.@.@.@.@.@.@.@.@.@.@.@.@.@.",
"@.@.@.@.@.@.@.@.@.@.G H F j ; g h h h l X.( n > > : w 7 5 @.@.@.@.@.@.@.@.@.@.@.@.@.@.@.@.@.@.@.@.@.",
"@.@.@.@.@.@.@.@.@., J H H h & g h h g p +.X.n = 2 0 r 5 6 @.@.@.@.@.@.@.@.@.@.@.@.@.@.@.@.@.@.@.@.@.",
"@.@.@.@.@.@.@.@.@., G F F g & a h g % I +.X.E > w n ! 4 X @.@.@.@.@.@.@.@.@.@.@.@.@.@.@.@.@.@.@.@.@.",
"@.@.@.@.@.@.@.@.@.d J F k s ; & g % @._ +.X.D q n ) ~ 5 @ @.@.@.@.@.@.@.@.@.@.@.@.@.@.@.@.@.@.@.@.@.",
"@.@.@.@.@.@.@.@.@.c H G k a $ @.@.@.1 ] +.X.D q S [ ` 6 4 @.@.@.@.@.@.@.@.@.@.@.@.@.@.@.@.@.@.@.@.@.",
"@.@.@.@.@.@.@.@.@.c j G k ; # @.@.B B ] +.` n q n ..} 6 5 @.@.@.@.@.@.@.@.@.@.@.@.@.@.@.@.@.@.@.@.@.",
"@.@.@.@.@.@.@.@.@.c j H k a # @.B V @.~ ) n x w E X.} u 4 @.@.@.@.@.@.@.@.@.@.@.@.@.@.@.@.@.@.@.@.@.",
"@.@.@.@.@.@.@.@.@.j F c F a # M V @.@.@.> 9 * b Q o.o.~ 3 @.@.@.@.@.@.@.@.@.@.@.@.@.@.@.@.@.@.@.@.@.",
"@.@.@.@.@.@.@.@.@.d F c H ; % $ @.@.@.@.@.@.@.q ) o.o.+.I @.@.@.@.@.@.@.@.@.@.@.@.@.@.@.@.@.@.@.@.@.",
"@.@.@.@.@.@.@.@.@.@.m c H , ; @.@.@.@.@.@.@.@.e ` o.X.+.] t @.@.@.@.@.@.@.@.@.@.@.@.@.@.@.@.@.@.@.@.",
"@.@.@.@.@.@.@.@.@.@.j f H s ; @.@.@.@.@.@.@.@.b Q X.Q { ~ t @.@.@.@.@.@.@.@.@.@.@.@.@.@.@.@.@.@.@.@.",
"@.@.@.@.@.@.@.@.@.@.@.@.c s a @.@.@.@.@.@.@.@.q D Q D b q 0 @.@.@.@.@.@.@.@.@.@.@.@.@.@.@.@.@.@.@.@.",
"@.@.@.@.@.@.@.@.@.@.@.@.f j $ $ @.@.@.@.@.@.@.@.* 9 e w q @.@.@.@.@.@.@.@.@.@.@.@.@.@.@.@.@.@.@.@.@.",
"@.@.@.@.@.@.@.@.@.@.@.@.@.d $ @.@.@.@.@.@.@.@.@.@.L 3 9 + @.@.@.@.@.@.@.@.@.@.@.@.@.@.@.@.@.@.@.@.@.",
"@.@.@.@.@.@.@.@.@.@.@.@.@.@.@.@.@.@.@.@.@.@.@.@.@.R y L @.@.@.@.@.@.@.@.@.@.@.@.@.@.@.@.@.@.@.@.@.@.",
"@.@.@.@.@.@.@.@.@.@.@.@.@.@.@.@.@.@.@.@.@.@.@.@.L 7 T 6 @.@.@.@.@.@.@.@.@.@.@.@.@.@.@.@.@.@.@.@.@.@.",
"@.@.@.@.@.@.@.@.@.@.@.@.@.@.@.@.@.@.@.@.@.@.o 3 u O u @.@.@.@.@.@.@.@.@.@.@.@.@.@.@.@.@.@.@.@.@.@.@.",
"@.@.@.@.@.@.@.@.@.@.@.@.@.@.@.@.@.@.@.@.@.o $ * *   7 @.@.@.@.@.@.@.@.@.@.@.@.@.@.@.@.@.@.@.@.@.@.@.",
"@.@.@.@.@.@.@.@.@.@.@.@.@.@.@.@.@.@.@.@.@.@.o * @.@.v 5 @.@.@.@.@.@.@.@.@.@.@.@.@.@.@.@.@.@.@.@.@.@.",
"@.@.@.@.@.@.@.@.@.@.@.@.@.@.@.@.@.@.@.@.@.* : * @.* v 3 @.@.@.@.@.@.@.@.@.@.@.@.@.@.@.@.@.@.@.@.@.@.",
"@.@.@.@.@.@.@.@.@.@.@.@.@.@.@.@.@.@.@.@.@.@.@.X l l < z , * * @.@.@.@.@.@.@.@.@.@.@.@.@.@.@.@.@.@.@."
};
