/* XPM */
static char *_1839_5d7a80b7213af5ecb07308c4e80a51eea6914a7fffe5a9586c550220b15dd4a5[] = {
/* columns rows colors chars-per-pixel */
"60 60 47 1 ",
"  c #000305",
". c #000906",
"X c #020B0B",
"o c #080E0E",
"O c #04100E",
"+ c #050E12",
"@ c #090F14",
"# c #071113",
"$ c #0A1415",
"% c #0E1817",
"& c #0D151A",
"* c #0F191B",
"= c #111717",
"- c #101B17",
"; c #11161C",
": c #121B1D",
"> c #16201F",
", c #0E1621",
"< c #0F1821",
"1 c #121621",
"2 c #141D22",
"3 c #181F26",
"4 c #161F28",
"5 c #191F2A",
"6 c #172023",
"7 c #192326",
"8 c #1D2927",
"9 c #162029",
"0 c #1C252B",
"q c #1F282C",
"w c #1E2631",
"e c #1F2831",
"r c #20272D",
"t c #212A2D",
"y c #26302F",
"u c #202736",
"i c #232C32",
"p c #282C35",
"a c #252D39",
"s c #263033",
"d c #293236",
"f c #2E3837",
"g c #273139",
"h c #2A333A",
"j c #2E393B",
"k c #313A3E",
"l c #343841",
/* pixels */
"di070t2$a99w099asq220t079tq737tiitq00970ii34aeqa&9it00qqr7:;",
"tqr0q092qeq99e00q9*20qtqqq92290q77732;900e99eq9e*:700000rr3;",
"qtiiq0732ee69ii0q0969qttiq02;90qtiiq79qi3tq0ee0e670qttii8::-",
"q90002&$&*262006qq0222793732%2799002$#*2&992008s0229q00q:;=$",
"9**272++*$&66$&6907*$$%&$*2*&:2**97*++&&&6>$%26q3&$*;&$&2*&=",
"0<&0i02;8->q8$%q7tq2<39;$;2239932ti060086t6$*688q2;26%&&4422",
"t22qse0qt78t6*>t0iiq0it629q770q0&90929967y7*6y8qgtqii9205544",
"0;;00*20**:*%*680ii00i0;29792779*606606%%7>$6syqt09tq229w555",
"%>66>66>***>%*6yiqtq0223:>6667>>6>>:>>>**<*20ip0si07927q766>",
"%2>:::*#%%%%$#*7222:<&&$$$####$%76>*%$##&&$&:9922&&$#+$2$$$$",
"::6:66&X66*6%%>7922292;&qq932670*>6>&$&>92;*;7720799::9i0979",
"8887886$88q88668qq00qt9&aew09w0q>6776>7tit729qr900009:7twwqq",
"8q88ss8:t8q8q668ti070t7$w0wqww90qss87>7qtq097qtq77009;600w90",
"6677q88>q87886>70q03907*99qqe0w96887767q0q097qqqt00q79900000",
"%2:*:>6*66>886>>3q0220896***:***%%*:>>77977639933*;272;2**%%",
"%%*%$%*%*%&>6:*:*79%*9q787>>%*:::*%%%%%%*22;*2220220tq06::::",
"dht2*67;9qt79qaiaaeweghgiii$*jklq3&&*9ttt790tttig99aawqup1&p",
"st9:2q090qq2:600aeq99eue70i&&giq349070900327qrqqi09iiw0qu11h",
"i9:9qiq0tit070qqssiqqssitts22ji0$2qitt0qt00titiitiiusiiqt1;i",
"t:;0i09q37097qqqqqq9qsstiqi&2giq&2qqq972t07909qr27qqiit0p52i",
"02600;*9$**&*;2&%;%%*62;&&2+$t32qq922*&#3;*&&&*2$:62:>:%3;;3",
"9670;*&*3979692&909:23<&+$037i22i7***23:q7222*276776;$$#3;13",
"9tt9926;idiiti0<sggieeq4&3jiijqi072290qaiitt00tdytqtr-=:lhhh",
"tds0qsi700q00q9*aaaaaae9;9jitdiiisit790eq09097tgy8tsy:3tprup",
"99qia04<ueieae06agq9aa9;98iiqwwa9e0w99g2wie0990a0waa9;9yrupu",
"eq9q0999iqq0009<ihsqisq78rtsiawwis00<2s00qeq00ifhaiit778ruii",
"86*::;;;yt88qqq86q7:66:7:->8qq93*>*:#$t708q8967qw9266>>:50r0",
"#O$>7-#o%%$$%%:>>>%O:*%>-:::2%**O%>>#X>%%%:>>:>>$##%>>>*222;",
"-%>ry7=o%%#$%>>6t8%%tt78ttq>%$$%78ty%.:$##%:68tyO%7ryytqr==o",
"s87tt8:=di8q8tttfq%>ss8tiit9%%7ttiqt%Oqt6678qqys$>yittqqt>=@",
"he9rr52;ee090009a0*<ui90099327ts90492&sggiqq0wqt$>qqww09r7:=",
"ge9upr31ew000e09ae99ii9aauw97088ewwl9&w909440qui:8w9weawr6>:",
"qes8089230q00079t2*30qqqur7;;&3rptrrr33r0t7qtq9a&9tq9tqq6:-=",
"979096*$&*2900qtitq09q009073;;5t753=@@;;;:::7q0s79770009:>:-",
"7<68q<&#$##:&+$**93*+$$+@$;&@=;2;75;@;;;%>:#<00w2$+$*@+&==--",
"q<*ee6&<a00e0**9<qq;*702$;55r55r;rp7:5r26t7$*q99a2&77*&37663",
"q22qi66qq39it33gqdi9qgs925rtrrrr&0p73r528s8&3iq0sqeie2;t>65r",
"92:7099q&*&2&$2tqit79q02;25r3222@2r5352;%7*$9iiuq0qi0:;93322",
"*299:*<62342*&9tiiit022235r7323r022;::;;&%#$0i0eqq099690rr73",
"$602*&**+&2$+*702277;++2$;;$@@@;i3;&;@@&>:$&09<02;$++%&$$@@@",
">>:::>$X3&&2&+#3**2232*#qiq7377::%:6$#::2<$#&22$7239;*9t0:;7",
"8ttqttq>aqqiq99i0iiqit02700790q07>8t>>78ii090ii0t70q22qq0929",
"8tq8q8>%q70q026q0q09372&q90qqqtiy7ts87yyqq0970q0i9qi2290ttq7",
"7887q87:q0qtt97qtt079772t0900229q>8866qq8qq090tiq27q2*739q02",
"$%:%>776299792229062270672*;*&&*>%%6%*2:993329707&292222;2*$",
"::%$#%%$%;:;%**;22;*;979339*;997:#%>%%6:2&&&;::90*2q00037*&2",
"ffy6:>66qqt000eiiit0tssi0iq;2ihi7*276>87s07qtiist27itit9q<<i",
"tt7>*6qqqq0790qqqt00qiiq7se**sja867888trs728iitti37ssii7i$*h",
"g0*<0ga9qeew000ehawwwauetst90hh529qe00ea009weaai8qqigaaaa99i",
"e096eeq09qeq00eue009weee7tq*<auw29tie922tq00qeeeq88tiqwwt2:t",
"*66866:2%%*%$&$%2*&*262*#>9&&9w466766**&>*%$&&%$>:>69*&,7%%7",
"%>77>%$%>76>2*%%2*<669;* &79904,8>:%%::67>>>:>>>::>>:&##8660",
"8q8q876>syttt876ssisssq7X6ssiuwwyt6>>88yttt888yst8tt8>::dits",
"ss8q8q877088q762hssissq6:qsaiaautttq8q8q707777qtssssq>>7dgss",
"tqw00092eqqeit00iw0www9<68qqqwwwqqiw9999eiq00qihuaaq7>>tuuuu",
"00we0922ew0weq42guewueq96qiaiewweee9220see0099qaauue067yuuau",
"8922<&*=iqqqq0727j>>t>7q;q*0i0q079$;&2gqtrt86678t%t-q7>2900r",
"#+&9w2*$*&&&2222$7..-O$%*7$&2+$@22*0&+2+**:%*>78$.>O6:*2;;;=",
"-*2egq*O&*&&;779td$$t8qqtd002$229qqi2+2+$&%:678i-$y7stti3;*@",
"jiqagq*Ot09500rrah%-fsii0i99*$07tiqq*#iq880q8tss%:k8i0qtr3;@"
};
