/* XPM */
static char *_0249_ee83d84979e324f8b2a461720ceeb22bffd634ea12fe1893728b3adbc1f7b928[] = {
/* columns rows colors chars-per-pixel */
"30 30 95 2 ",
"   c #405D64",
".  c #46656D",
"X  c #4A6B73",
"o  c #4D6F78",
"O  c #4E717A",
"+  c #51747E",
"@  c #537781",
"#  c #557A85",
"$  c #597B86",
"%  c #577D88",
"&  c #587E89",
"*  c #5B828D",
"=  c #5E8692",
"-  c #5F8894",
";  c #608A96",
":  c #638D9A",
">  c #6B8F9C",
",  c #65909E",
"<  c #6D919E",
"1  c #6793A1",
"2  c #6A96A4",
"3  c #6B98A7",
"4  c #6D9BAA",
"5  c #7096A5",
"6  c #7398A6",
"7  c #739DAD",
"8  c #799EAD",
"9  c #73A0AF",
"0  c #7AA2AF",
"q  c #72A2B2",
"w  c #7AA4B4",
"e  c #7CA7B8",
"r  c #76A9BA",
"t  c #7BABBC",
"y  c #7BAFC0",
"u  c #7DB2C4",
"i  c #81A6B5",
"p  c #83AAB7",
"a  c #81A9BA",
"s  c #8DAFBB",
"d  c #85B0BF",
"f  c #8DB0BB",
"g  c #83AEC0",
"h  c #82B2C5",
"j  c #8CB3C5",
"k  c #84B6C9",
"l  c #89B6C9",
"z  c #84B8CB",
"x  c #8CBACE",
"c  c #91B6C5",
"v  c #95BCCD",
"b  c #9FBDCD",
"n  c #8DBED2",
"m  c #93BED3",
"M  c #9ABED0",
"N  c #93C1D6",
"B  c #9BC2D6",
"V  c #9BC5DB",
"C  c #9DC8DD",
"Z  c #A5C1CC",
"A  c #A5C6D5",
"S  c #A8C7D4",
"D  c #AFCDD7",
"F  c #A3CADC",
"G  c #AACBDC",
"H  c #B4CDD5",
"J  c #B0CCD8",
"K  c #BDD1D8",
"L  c #9FCAE0",
"P  c #A2CBE2",
"I  c #AFD2E4",
"U  c #ADD3EB",
"Y  c #B3D4E2",
"T  c #BBD5E2",
"R  c #B2D8F1",
"E  c #C0D6DD",
"W  c #C4DDE7",
"Q  c #C3DEEE",
"!  c #C1DEF1",
"~  c #CBE0E7",
"^  c #CCE2EB",
"/  c #D4E6EF",
"(  c #DBE7EB",
")  c #DAE9EF",
"_  c #CCE4F3",
"`  c #CFE7F8",
"'  c #D3E7F1",
"]  c #D6EAF5",
"[  c #D4EAF9",
"{  c #DCEDF9",
"}  c #EFF6F9",
"|  c #F1F7F9",
" . c #F5F9FB",
".. c #FDFEFE",
"X. c None",
/* pixels */
"X.X.X.X.X.X.X.X.q q q 4 4 4 4 w g k l y r X.X.X.X.X.X.X.X.X.",
"X.X.X.X.X.X.X.t u u u u u h x F I P L N k u t X.X.X.X.X.X.X.",
"X.X.X.X.X.t z u u k k t k F _ ' Y B v N n x u t 3 X.X.X.X.X.",
"X.X.X.X.T _ R ! ! ! B l P ^ J w 6 6 < 5 = 3 u u q 3 X.X.X.X.",
"X.X.X.G _ ` ` ` ` T j L C a 2 p V B 6 V w * * q q q 2 X.X.X.",
"X.X.X.V P P L L L a m C w 6 S ] [ Z 3 l u u , + - 4 4 X.X.X.",
"X.X.r u u u u u 9 9 V e 0 Y { ! I Z q q u u u 4 O : 4 , X.X.",
"X.X.4 9 7 7 7 4 1 r g 6 V ! U N Y ~ r 2 u u u u - O , 1 X.X.",
"X., 3 3 3 3 3 1 2 r : j R U m n ^ ) t 1 r u u u 9 O * , = X.",
"X.2 3 3 3 3 2 : 1 1 & P U m m P } ..D w w u u t q - X - - X.",
": 3 3 3 3 3 2 ; : # 5 P v S '  .......( H c 0 3 3 , X * - X.",
": 3 3 3 3 3 1 = & @ 8 c m B G T  ...K p t q 3 1 - * O O * % ",
", 4 3 4 4 4 , = # $ P g l y y y ~ | d 2 3 3 3 : % 2 = X * % ",
"- : : : : : = & @ & M u w t q q S ( 9 3 3 3 - # 1 q - . @ * ",
"@ # @ # $ # & & X $ g r r w e 2 f K 3 3 2 * @ , q q - X @ * ",
"@ # # # # # & & X @ e q q q 7 q w Z 2 3 - O - q q 3 = . O % ",
"@ $ # # # # # & o O 3 q q q 3 e w s 2 4 ; + 4 q 4 1 * . + * ",
"@ # # # # # # & o o : 7 q 4 7 k w 0 , 1 : + : 3 1 , @ . O * ",
"@ # # # # # # & o . = 2 q 4 a h 4 , $ * ; @ & 2 1 : o X @ * ",
"@ @ # # # # # % + . # : 4 4 x t 1 # + + $ # @ , , * . X % X.",
"X.@ @ @ @ @ @ @ @ X X * ; 6 n 3 * : 1 $ O @ + = = + . O % X.",
"X.. X X X X . @ # o . @ & i t * : 1 1 1 - + + # * X X + % X.",
"X.X.X X X X X X # + X X # > * = - ; : ; ; * @ + O . X % X.X.",
"X.X.X X X X X X O # X . . % * * * * * * * * * O . X + % X.X.",
"X.X.X.o X X X X X @ @ X . X # = = * * * * * + . X o # X.X.X.",
"X.X.X.X X X X X X o @ @ X X . O # * * % + X . X X @ # X.X.X.",
"X.X.X.X.X X X X X X o # O X X . . . . . . . X o + % X.X.X.X.",
"X.X.X.X.X.X X X X X X o # @ o X . X X X o X O @ # X.X.X.X.X.",
"X.X.X.X.X.X.X X X . . . . o @ # O O o O O # % X.X.X.X.X.X.X.",
"X.X.X.X.X.X.X.X.            . o + * # * * X.X.X.X.X.X.X.X.X."
};
