/* XPM */
static char *_7440_1ba9b9a18f7a31c97d644db703f6810922c4ae4d8597b5e4ced453584e2e58cc[] = {
/* columns rows colors chars-per-pixel */
"30 30 69 1 ",
"  c #46656D",
". c #48686F",
"X c #4A6B73",
"o c #4D6F78",
"O c #4E717A",
"+ c #51747E",
"@ c #537680",
"# c #567B85",
"$ c #577E88",
"% c #587F8A",
"& c #5A828D",
"* c #5D8592",
"= c #5F8894",
"- c #638793",
"; c #618A96",
": c #638D9A",
"> c #66919E",
", c #6793A1",
"< c #6A95A4",
"1 c #6B98A7",
"2 c #6D9CAB",
"3 c #7195A3",
"4 c #7499A7",
"5 c #729EAD",
"6 c #70A0AF",
"7 c #72A2B2",
"8 c #7CA4B4",
"9 c #75A7B8",
"0 c #76A9BA",
"q c #7BABBC",
"w c #7BAEC0",
"e c #7DB2C4",
"r c #85ABBC",
"t c #84AFC1",
"y c #84B2C4",
"u c #89B2C4",
"i c #84B5C8",
"p c #8AB6C9",
"a c #86B9CC",
"s c #89B9CD",
"d c #90B7CA",
"f c #91BACE",
"g c #8EBDD1",
"h c #93BDD2",
"j c #99BFD2",
"k c #95C2D6",
"l c #9DC2D4",
"z c #96C4D9",
"x c #9AC5DA",
"c c #9EC9DF",
"v c #A3C2CF",
"b c #A2C9DE",
"n c #9FCAE0",
"m c #A4CCE3",
"M c #AFD6EE",
"N c #B4D4E5",
"B c #B0D4EB",
"V c #BFDCEB",
"C c #B1D7F0",
"Z c #B2D8F0",
"A c #BEDDF3",
"S c #C7DEE9",
"D c #C2DFF1",
"F c #D2E7F2",
"G c #D5E9F4",
"H c #D9EBF6",
"J c #D3E9F8",
"K c #DCEEFA",
"L c None",
/* pixels */
"LLLLLLLLLLLyipspe97LLLLLLLLLLL",
"LLLLLLLLtskbNmmnzaieqLLLLLLLLL",
"LLLLLLLpkNGGNlkhkggsee7LLLLLLL",
"LLLLL8scVSv8433<4=*7ee02<LLLLL",
"LLLL8pmcp43rjmurcy>#$2777<LLLL",
"LLL<tcx83rNKGBu5gsyq<@%,27,LLL",
"LLL1hk84lFKDmpp60ieee9$@:21LLL",
"LL,5s83kAAmhsug9<eeeee7O@>1=LL",
"L:182-hCBcggijs017eeee9,X%::&L",
"L:,7+5BCxgggubi062eeew77&X*:*L",
"L;:-+fmpytttjne0222272<1,X+;*L",
"**%O:rjhhghggae017721,>*&+X&&#",
"=&#Xumuhwweeeee7<1221,&*2; +&%",
"=%+Xdzw8u96700922<<<=$=27< o&%",
";#oXrqww8t9<1111<2:#@;776>.X$&",
";#XX5967968711112,@+,7721: X#&",
"=$XX:277775y21111<@%7621,* X#%",
"%$o *<6772ta71<>,<%@12,,,$ X$%",
"$$o #:1775je7<*$*=&+*,,,;+ o$$",
"L&O.X=:12rk01*@OO$%@#>,:&..O&L",
"L&@X @*=>lp1**>>%@@@@=;*@ X@&L",
"L$$o. $&3b1-:,,,,:%o+#*$ .o$LL",
"LL&@X X$<<&*==::;;=%@@#. o@&LL",
"LLL&OX  @&&&*&&&**&**@  XO%LLL",
"LLL#$oX  +&&&&&&&*&&@  Xo$$LLL",
"LLLL$#oXX .+#$&&$#O. XXo##LLLL",
"LLLLL$$OXXX        XXXO##LLLLL",
"LLLLLLL%#OXXXXXXXXXXo@$LLLLLLL",
"LLLLLLLLL$#@OOOooO@##LLLLLLLLL",
"LLLLLLLLLLL$$$$$$$$LLLLLLLLLLL"
};
