/* XPM */
static char *_1079_4872a44f6f51b5b955fcc2250d87942838ae78301c7b943690415107fe70ba22[] = {
/* columns rows colors chars-per-pixel */
"30 38 146 2 ",
"   c #1B150E",
".  c #001014",
"X  c #161617",
"o  c #171718",
"O  c #1C1C1D",
"+  c #111A1D",
"@  c #23201E",
"#  c #2C241B",
"$  c #3D2815",
"%  c #322519",
"&  c #001F27",
"*  c #171F22",
"=  c #1F1F20",
"-  c #1B2629",
";  c #03313C",
":  c #222122",
">  c #43270D",
",  c #4C2C0D",
"<  c #4D2E12",
"1  c #4F3312",
"2  c #543111",
"3  c #5B3511",
"4  c #5C3C15",
"5  c #69400D",
"6  c #72440D",
"7  c #77490F",
"8  c #6F4611",
"9  c #7C4C13",
"0  c #5D542F",
"q  c #7C5E28",
"w  c #013542",
"e  c #013947",
"r  c #013E4D",
"t  c #113C48",
"y  c #014353",
"u  c #014A5C",
"i  c #17555D",
"p  c #2F5750",
"a  c #014E62",
"s  c #015165",
"d  c #01566B",
"f  c #01596F",
"g  c #015C73",
"h  c #01627A",
"j  c #0C6172",
"k  c #1A6578",
"l  c #156A7F",
"z  c #15667B",
"x  c #824E0F",
"c  c #8C520E",
"v  c #965A11",
"b  c #9D5E12",
"n  c #A05F13",
"m  c #9D6016",
"M  c #A36212",
"N  c #AB6714",
"B  c #AE6813",
"V  c #A26318",
"C  c #A5691C",
"Z  c #B36B14",
"A  c #BE7316",
"S  c #885E20",
"D  c #AD7223",
"F  c #C37516",
"G  c #CD7B17",
"H  c #CC7B18",
"J  c #D17E17",
"K  c #D27E19",
"L  c #D68119",
"P  c #DD851A",
"I  c #E1871B",
"U  c #EC8D1C",
"Y  c #E5891B",
"T  c #F3921D",
"R  c #F9951E",
"E  c #036780",
"W  c #026B85",
"Q  c #026E89",
"!  c #03718D",
"~  c #037692",
"^  c #037996",
"/  c #047C9B",
"(  c #307485",
")  c #377E90",
"_  c #04809F",
"`  c #2F859B",
"'  c #368599",
"]  c #0384A5",
"[  c #0487A9",
"{  c #048AAC",
"}  c #1286A3",
"|  c #038EB1",
" . c #0392B6",
".. c #0395B9",
"X. c #0498BE",
"o. c #0A9ABE",
"O. c #1494B5",
"+. c #2190AD",
"@. c #209FBF",
"#. c #2BA1BE",
"$. c #3CA4BE",
"%. c #4D818E",
"&. c #519AAC",
"*. c #6D9DAA",
"=. c #49A4BA",
"-. c #71A2AF",
";. c #69A7B6",
":. c #61A1B2",
">. c #75A4B1",
",. c #059DC4",
"<. c #0A9DC2",
"1. c #05A0C7",
"2. c #05A2CA",
"3. c #03A7D0",
"4. c #05A8D2",
"5. c #68AFC1",
"6. c #7EB6C3",
"7. c #8E8E8E",
"8. c #979797",
"9. c #86AEB8",
"0. c #9CB0B6",
"q. c #B9B9B9",
"w. c gray71",
"e. c #83B5C2",
"r. c #97BEC8",
"t. c #A1BDC4",
"y. c #96C1CB",
"u. c #AAC1C7",
"i. c #A1C2CA",
"p. c #BBC8CC",
"a. c #B9CDD2",
"s. c #C7CBCC",
"d. c #CECECE",
"f. c #C5C4C4",
"g. c #C7CED0",
"h. c #C8D0D2",
"j. c #DBE5E8",
"k. c #E6E6E6",
"l. c #E9E6E6",
"z. c #ECEBEA",
"x. c #E6EAEC",
"c. c #F0EDED",
"v. c #F5F4F4",
"b. c #F8F6F5",
"n. c #FEFDFD",
"m. c None",
/* pixels */
"m.m.m.m.m.m.m.m.m.m.m.y u Q [ m.m.m.m.m.m.m.m.m.m.m.m.m.m.m.",
"m.m.m.m.m.m.m.~ [ O.[ g g [ 2.] m.m.m.m.m.m.m.m.m.m.m.m.m.m.",
"m.m.m.m.a d h { 4.4.4.{ ] 1.4...m.m.m.m.m.m.m.m.m.m.m.m.m.m.",
"m.m.u g d g h | 4.4.4.4.4.2.4.1.~ m.m.m.m.m.m.m.m.m.m.m.m.m.",
"m.a g d r d Q ,.2.3.3.4.4.4.4.4.1.m.m.m.m.m.m.m.m.m.m.m.m.m.",
"m.f g f d g E [ <.#.$.<.2.4.4.1.| E m.m.m.m.m.m.m.m.m.m.m.m.",
"r g g u d g Q O.y.x.b.j.5.2.4.{ ' a.z.w.m.m.m.m.m.m.m.m.m.m.",
"m.g g g d g / e.n.n.b.f.k.=.2.1.i.n.b.8.q.m.m.m.m.m.m.m.m.m.",
"m.d g g g h z h.n.n.b.8.z.r.1.<.u.b.n.n.l.m.m.m.m.m.m.m.m.m.",
"m.u g g g g k g.b.n.n.n.n.i.,.,.-.l.n.n.s.m.m.m.m.m.m.m.m.m.",
"m.w a d g g g 0.v.n.n.n.n.;.2. .} *.u.9.m.m.m.m.m.m.m.m.m.m.",
"y u y y d g g ( p.c.b.b.t.O.[ Q ^ ! <.X.m.m.m.m.m.m.m.m.m.m.",
"y f u u s g g h O.*.>.&.O.2.~ ^ ,...,.o.{ m.m.m.m.m.m.m.m.m.",
"e s d g f g g h  .| X...,.,.1.{  .<.6.a.) m.m.m.m.m.m.m.m.m.",
"m.m.y y m.u s g { ../ | .. ./ m.m.%.z.b.m.m.m.m.m.m.m.m.m.m.",
"m.m.m.m.m.m.m.m.u Q X.1.,.^ m.m.m.m.d.d.m.m.m.m.m.m.m.m.m.m.",
"m.m.m.m.m.m.m.m.m.y ] 1.[ m.m.m.m.m.m.m.m.m.m.m.m.m.m.m.m.m.",
"m.m.m.m.m.m.m.m.5 0 j Q m.m.m.m.m.m.m.m.m.m.m.m.m.m.m.m.m.m.",
"m.m.m.m.m.m.m.m.v H S D H K K L L L L K G C i g m.E d m.m.m.",
"m.m.m.m.m.m.m.m.b H n G P U T T R R R R R q [ 1.{ ~ d g h m.",
"m.m.m.m.m.m.m.m.M K N M Z F K L L L J F n m.s <.2. ./ u _ u ",
"m.m.m.m.m.m.m.m.B J Y Y H B v B F G G F 8 m.m.W { r E w e m.",
"m.m.m.m.m.m.m.m.Z G I T R U b N m b B c p ] m.u ~ & W m.m.m.",
"m.m.m.m.m.m.m.m.F G L P R T b Z J F 6 m.a ,./ s y . y m.m.m.",
"m.m.m.m.m.m.m.6 F G L H T R Z m.N M m.m.m.{ ] W g f m.m.m.m.",
"m.m.m.m.m.m.m.x G G L A T U A m.m.m.m.m.m.^ W h h h ~ m.m.m.",
"m.m.m.m.m.m.m.v H Z H 9 m m 1 m.m.m.m.m.y ! w f d ; u m.m.m.",
"m.m.m.m.m.m.m.7 4 % 3 # @ # O m.m.m.m.m.r m.m.d m.m.m.m.m.m.",
"m.m.m.m.m.m.m.  : : = @ : : o m.m.m.m.m.m.m.m.m.m.m.m.m.m.m.",
"m.m.m.m.m.m.m.m.m.: - O O o m.m.m.m.m.m.m.m.m.m.m.m.m.m.m.m.",
"m.m.m.m.m.m.m.m.m.= : = : O m.m.m.m.m.m.m.m.m.m.m.m.m.m.m.m.",
"m.m.m.m.m.m.m.m.m.- - m.: O m.m.m.m.m.m.m.m.m.m.m.m.m.m.m.m.",
"m.m.m.m.m.m.m.m.: t m.m.: - o m.m.m.m.m.m.m.m.m.m.m.m.m.m.m.",
"m.m.m.m.m.m.% : : m.m.m.m.= + m.m.m.m.m.m.m.m.m.m.m.m.m.m.m.",
"m.m.m.m.m.m.< 1 $ m.m.m.m.; g m.m.{ ' m.m.m.m.m.m.m.m.m.m.m.",
"m.m.m.m.m.m.m., 3 3 , m.m.m./ / ~ Q m.m.m.m.m.m.m.m.m.m.m.m.",
"m.m.m.m.m.m.m.m.> 3 3 m.m.m.h g m.m.m.m.m.m.m.m.m.m.m.m.m.m.",
"m.m.m.m.m.m.m.m.m.m.> m.m.m.m.m.m.m.m.m.m.m.m.m.m.m.m.m.m.m."
};
