/* XPM */
static char *_072_31d274a964dc414038ec9fab015b563316ac708e12613986e16c1707ab91b8a2[] = {
/* columns rows colors chars-per-pixel */
"50 45 117 2 ",
"   c #050205",
".  c #0E0205",
"X  c #03030B",
"o  c #0D050D",
"O  c #000808",
"+  c #080B0F",
"@  c #130306",
"#  c #1E0707",
"$  c #130609",
"%  c #1C060C",
"&  c #170B0E",
"*  c #1C090E",
"=  c #030513",
"-  c #060B13",
";  c #040719",
":  c #050A1D",
">  c #0A0B1C",
",  c #120711",
"<  c #120911",
"1  c #1C0B16",
"2  c #130C1B",
"3  c #1C0D1C",
"4  c #061313",
"5  c #0C1012",
"6  c #001E1D",
"7  c #1D1013",
"8  c #14111E",
"9  c #1C111C",
"0  c #24040C",
"q  c #2D040C",
"w  c #2B0D0C",
"e  c #34030C",
"r  c #3A040D",
"t  c #350E0D",
"y  c #3A100F",
"u  c #250C12",
"i  c #2B0D15",
"p  c #350714",
"a  c #3C0613",
"s  c #390915",
"d  c #3E0B1B",
"f  c #2D1116",
"g  c #2E1319",
"h  c #2F181B",
"j  c #3E1914",
"k  c #33141A",
"l  c #391719",
"z  c #3C191E",
"x  c #060C22",
"c  c #0A0E25",
"v  c #130E20",
"b  c #0E1126",
"n  c #0F1A20",
"m  c #0A112B",
"M  c #151323",
"N  c #191325",
"B  c #121C21",
"V  c #1D1A24",
"C  c #13152C",
"Z  c #1C162A",
"A  c #1A182D",
"S  c #1C1A31",
"D  c #211423",
"F  c #281A26",
"G  c #21162C",
"H  c #22192E",
"J  c #3D1920",
"K  c #221D33",
"L  c #012724",
"P  c #002F2E",
"I  c #00302C",
"U  c #2D2729",
"Y  c #4F1C0D",
"T  c #420612",
"R  c #4F0616",
"E  c #420911",
"W  c #450A19",
"Q  c #4D0B1C",
"!  c #500718",
"~  c #540A1C",
"^  c #4C1912",
"/  c #441A1C",
"(  c #4B1F1D",
")  c #541F16",
"_  c #601E1C",
"`  c #4F201B",
"'  c #57211A",
"]  c #5E251B",
"[  c #632516",
"{  c #65251D",
"}  c #69231D",
"|  c #63281D",
" . c #742C1B",
".. c #792D1D",
"X. c #7C301F",
"o. c #431B20",
"O. c #4D1F21",
"+. c #502021",
"@. c #5A2323",
"#. c #612725",
"$. c #662827",
"%. c #6A2A24",
"&. c #6D2A28",
"*. c #712723",
"=. c #742D22",
"-. c #732C29",
";. c #782D2A",
":. c #7D3021",
">. c #7E302C",
",. c #863322",
"<. c #8C3526",
"1. c #84312C",
"2. c #8C342E",
"3. c #92362E",
"4. c #95382B",
"5. c #943730",
"6. c None",
/* pixels */
"6.6.6.6.6.6.6.6.6.6.6.6.6.6.6.6.6.6.6.6.6.6.6.6.6.6.6.6.6.6.6.6.6.6.6.6.6.6.6.6.6.6.6.6.6.6.6.6.6.6.",
"6.6.6.6.6.6.6.6.6.6.6.6.6.6.6.6.6.6.6.6.6.6.6.6.6.6.6.6.6.6.6.6.6.6.6.6.6.6.6.6.6.6.6.6.6.6.6.6.6.6.",
"6.6.6.6.6.6.6.6.6.6.6.6.6.6.6.6.6.6.6.6.6.6.6.6.6.6.6.6.6.6.6.6.6.6.6.6.6.6.6.6.6.6.6.6.6.6.6.6.6.6.",
"6.6.6.6.6.6.6.6.6.6.6.6.6.6.6.6.6.6.6.6.6.6.6.6.6.6.6.6.6.6.6.6.6.6.6.6.6.6.6.6.6.6.6.6.6.6.6.6.6.6.",
"6.6.6.6.6.6.6.6.6.6.6.6.6.6.6.6.6.6.6.6.6.6.6.6.6.6.6.6.6.6.6.6.6.6.6.6.6.6.6.6.6.6.6.6.6.6.6.6.6.6.",
"6.6.6.6.6.6.6.6.6.6.6.6.6.6.6.6.6.6.6.6.6.6.6.6.6.6.6.6.6.6.6.6.6.6.6.6.6.6.6.6.6.6.6.6.6.6.6.6.6.6.",
"6.6.6.6.6.6.6.6.6.6.6.6.6.6.6.6.6.6.6.6.6.6.6.6.6.6.6.6.6.6.6.6.6.6.6.6.6.6.6.6.6.6.6.6.6.6.6.6.6.6.",
"6.6.6.6.6.6.6.6.6.6.6.6.6.6.6.6.6.6.6.6.6.6.6.6.6.6.6.6.6.6.6.6.6.6.6.6.6.6.6.6.6.6.6.6.6.6.6.6.6.6.",
"6.6.6.6.6.6.6.6.6.6.6.6.6.6.6.6.6.6.6.6.6.6.6.6.6.6.6.6.6.6.6.6.6.6.6.6.6.6.6.6.6.6.6.6.6.6.6.6.6.6.",
"6.6.6.6.6.6.6.6.6.6.6.6.6.6.6.6.6.6.6.6.6.6.M H 3 6.6.6.6.6.6.6.6.6.6.6.6.6.6.6.6.6.6.6.6.6.6.6.6.6.",
"6.6.6.6.6.6.6.6.6.6.6.6.6.6.6.6.6.6.6.6.- M U 8 S K 6.6.X Z N 6.6.6.6.6.6.6.6.6.6.6.6.6.6.6.6.6.6.6.",
"6.6.6.6.6.6.6.6.6.6.6.6.6.6.6.6.6.6.4 B B 5 V M A K H 6.X v K H 6.6.6.6.6.6.6.6.6.6.6.6.6.6.6.6.6.6.",
"6.6.6.6.6.6.6.6.6.6.6.6.6.6.6.6.6.6.X + 5 + b K S K K N 6.X c K H 6.6.6.6.6.6.6.6.6.6.6.6.6.6.6.6.6.",
"6.6.6.6.6.6.6.6.6.6.6.6.6.6.6.6.6.6.6.6.6.X x C S A K K 6.6.= C K H 6.6.6.6.6.6.6.6.6.6.6.6.6.6.6.6.",
"6.6.6.6.6.6.6.6.6.6.6.6.6.6.6.6.6.6.6.6.6.6.= m C Z D H > 6.X ; A K H 6.6.6.6.6.6.6.6.6.6.6.6.6.6.6.",
"6.6.6.6.6.6.6.6.6.6.6.6.6.6.6.6.6.6.6.6.6.6.= C F ` ' f w 6.X = c K K H 6.6.6.6.6.6.6.6.6.6.6.6.6.6.",
"6.6.6.6.6.6.6.6.6.6.6.6.6.6.6.6.6.6.6.6.6.6.> V | ` f ' ) # X = ; S K K N 6.6.6.6.6.6.6.6.6.6.6.6.6.",
"6.6.6.6.6.6.6.6.6.6.6.6.6.6.6.6.6.6.6.6.6.6.M z #.u h -.,.u - M X b S K K 6.6.6.6.6.6.6.6.6.6.6.6.6.",
"6.6.6.6.6.6.6.6.6.6.6.6.6.6.6.6.6.6.6.6.6.6.8 ] l $ g 1.4.h A M ; > S S K H 6.6.6.6.6.6.6.6.6.6.6.6.",
"6.6.6.6.6.6.6.6.6.6.6.6.6.6.6.6.6.6.6.6.6.6.j %.u $ f >.4.g 8 M C ; m S K K 6.6.6.6.6.6.6.6.6.6.6.6.",
"6.6.6.6.6.6.6.6.6.6.6.6.6.6.6.6.6.6.6.6.6.6...' & & u %.4.l A K S x : S K K G 6.6.6.6.6.6.6.6.6.6.6.",
"6.6.6.6.6.6.6.6.6.6.6.6.6.6.6.6.6.6.6.6.6.6.=.g & 7 1 +.3.] A K A b ; C K K K 6.6.6.6.6.6.6.6.6.6.6.",
"6.6.6.6.6.6.6.6.6.6.6.6.6.6.6.6.6.6.6.6.6.Y @.f & 7 & z 1.] C S C m ; b H K K Z 6.6.6.6.6.6.6.6.6.6.",
"6.6.6.6.6.6.6.6.6.6.6.6.6.6.6.6.6.6.6.6.6.w z k & 7 1 J %.:.8 C m m x x A S K K 6.6.6.6.6.6.6.6.6.6.",
"6.6.6.6.6.6.6.6.6.6.6.6.6.6.6.6.6.6.6.6.6.r s i % & * o.@.<.9 m m m c ; C S K K 6.6.6.6.6.6.6.6.6.6.",
"6.6.6.6.6.6.6.6.6.6.6.6.6.6.6.6.6.6.6.6.6.T r r 0 0 * o.1.4.l x m m c = C K K K 2 6.6.6.6.6.6.6.6.6.",
"6.6.6.6.6.6.6.6.6.6.6.6.6.6.6.6.6.6.6.6.6.  q _ / f * o.2.4.Y = m m : = x K K K 2 6.6.6.6.6.6.6.6.6.",
"6.6.6.6.6.6.6.6.6.6.6.6.6.6.6.6.6.6.6.6.6.@ r _ $.l u / 2.3. .6.; x = = x S H K 2 6.6.6.6.6.6.6.6.6.",
"6.6.6.6.6.6.6.6.6.6.6.6.6.6.6.6.6.6.6.6.6.e T *.-.z u o.1.5.:.4 6.6.6.X : S K K Z 6.6.6.6.6.6.6.6.6.",
"6.6.6.6.6.6.6.6.6.6.6.6.6.6.6.6.6.6.6.6.6.r T 1.1.J u J &.5.X.L L 6.6.X ; S K N G 6.6.6.6.6.6.6.6.6.",
"6.6.6.6.6.6.6.6.6.6.6.6.6.6.6.6.6.6.6.6.6.0 a 1.2.+.i k / $.[ 6.P L 6.X ; S K Z H 6.6.6.6.6.6.6.6.6.",
"6.6.6.6.6.6.6.6.6.6.6.6.6.6.6.6.6.6.6.6.6.0 } 3.3.@.g $ u * 6.6.6.P 6 X ; S G H Z 6.6.6.6.6.6.6.6.6.",
"6.6.6.6.6.6.6.6.6.6.6.6.6.6.6.6.6.6.6.6.6.^ 4.3.2.#.u 6.6.6.6.6.6.6.O = > K Z G 2 6.6.6.6.6.6.6.6.6.",
"6.6.6.6.6.6.6.6.6.6.6.6.6.6.6.6.6.6.6.6.t ..3.2.3.-.g 6.6.6.6.6.6.6.6.; x K Z K 6.6.6.6.6.6.6.6.6.6.",
"6.6.6.6.6.6.6.6.6.6.6.6.6.6.6.6.6.6.6.6.y { ;.@.3.@.k 6.6.6.6.6.6.6.6.; > K M Z 6.6.6.6.6.6.6.6.6.6.",
"6.6.6.6.6.6.6.6.6.6.6.6.6.6.6.6.6.6.6.6.w u l J @.z i 6.6.6.6.6.6.6.6.x > G 6.6.6.6.6.6.6.6.6.6.6.6.",
"6.6.6.6.6.6.6.6.6.6.6.6.6.6.6.6.6.6.6.6.6.1 i k u @ 6.6.6.6.6.6.6.6.X = C 3 6.6.6.6.6.6.6.6.6.6.6.6.",
"6.6.6.6.6.6.6.6.6.6.6.6.6.6.6.6.6.6.6.6.6.. q % Q 6.6.6.6.6.6.6.6.6.6.  2 6.6.6.6.6.6.6.6.6.6.6.6.6.",
"6.6.6.6.6.6.6.6.6.6.6.6.6.6.6.6.6.6.6.6.6.6.R s ~ 6.6.6.6.6.6.6.6.6.6.6.6.6.6.6.6.6.6.6.6.6.6.6.6.6.",
"6.6.6.6.6.6.6.6.6.6.6.6.6.6.6.6.6.6.6.6.6.6.T Q p R 6.6.6.6.6.6.6.6.6.6.6.6.6.6.6.6.6.6.6.6.6.6.6.6.",
"6.6.6.6.6.6.6.6.6.6.6.6.6.6.6.6.6.6.6.6.6.6.6.W . W *   6.6.6.6.6.6.6.6.6.6.6.6.6.6.6.6.6.6.6.6.6.6.",
"6.6.6.6.6.6.6.6.6.6.6.6.6.6.6.6.6.6.6.6.6.6.6.a   $ o   . 6.6.6.6.6.6.6.6.6.6.6.6.6.6.6.6.6.6.6.6.6.",
"6.6.6.6.6.6.6.6.6.6.6.6.6.6.6.6.6.6.6.6.6.6.e W 6.6.o   6.6.6.6.6.6.6.6.6.6.6.6.6.6.6.6.6.6.6.6.6.6.",
"6.6.6.6.6.6.6.6.6.6.6.6.6.6.6.6.6.6.6.6.6.6.0 d @ 6., ,   6.6.6.6.6.6.6.6.6.6.6.6.6.6.6.6.6.6.6.6.6.",
"6.6.6.6.6.6.6.6.6.6.6.6.6.6.6.6.6.6.6., o < D 1 3 3   6.6.6.6.6.6.6.6.6.6.6.6.6.6.6.6.6.6.6.6.6.6.6."
};
